<?xml version="1.0" encoding="UTF-8" standalone="no"?>
<svg
   version="1.2"
   width="247.29184"
   height="109.67906"
   viewBox="0 0 247.29184 109.67906"
   xml:space="preserve"
   style="overflow:visible"
   id="svg215"
   sodipodi:docname="dicedata_logo.svg"
   inkscape:version="1.2 (dc2aedaf03, 2022-05-15)"
   inkscape:export-filename="dicedata_logo.png"
   inkscape:export-xdpi="1120.3597"
   inkscape:export-ydpi="1120.3597"
   xmlns:inkscape="http://www.inkscape.org/namespaces/inkscape"
   xmlns:sodipodi="http://sodipodi.sourceforge.net/DTD/sodipodi-0.dtd"
   xmlns="http://www.w3.org/2000/svg"
   xmlns:svg="http://www.w3.org/2000/svg"
   xmlns:rdf="http://www.w3.org/1999/02/22-rdf-syntax-ns#"
   xmlns:cc="http://creativecommons.org/ns#"
   xmlns:dc="http://purl.org/dc/elements/1.1/"><defs
   id="defs219">
	
	

		
	
	
	

	
	

	
	

	
	

			
		</defs><sodipodi:namedview
   id="namedview217"
   pagecolor="#ffffff"
   bordercolor="#000000"
   borderopacity="0.25"
   inkscape:showpageshadow="2"
   inkscape:pageopacity="0.0"
   inkscape:pagecheckerboard="true"
   inkscape:deskcolor="#d1d1d1"
   showgrid="false"
   inkscape:zoom="2.8284271"
   inkscape:cx="121.62237"
   inkscape:cy="191.80272"
   inkscape:window-width="1124"
   inkscape:window-height="1385"
   inkscape:window-x="-9"
   inkscape:window-y="0"
   inkscape:window-maximized="0"
   inkscape:current-layer="g5287"
   showguides="true"><inkscape:grid
     type="xygrid"
     id="grid698"
     originx="-174.46278"
     originy="-86.26816" /></sodipodi:namedview>
	
<title
   id="title2">Craps table layout</title>
<desc
   id="desc4">First published Betzaar.com under the CreativeCommons Attribution+ShareAlike licence</desc>



















































































































































































































<metadata
   id="metadata481"><rdf:RDF><cc:Work
       rdf:about=""><dc:title>Craps table layout</dc:title></cc:Work></rdf:RDF></metadata><text
   xml:space="preserve"
   style="font-style:normal;font-variant:normal;font-weight:normal;font-stretch:normal;font-size:32px;font-family:'ITC Benguiat Std';-inkscape-font-specification:'ITC Benguiat Std';fill:#ffffff;stroke:#000000;stroke-width:0"
   x="425.03784"
   y="267.53958"
   id="text1176"><tspan
     sodipodi:role="line"
     id="tspan1174"
     x="425.03784"
     y="267.53958" /></text><g
   inkscape:groupmode="layer"
   id="layer1"
   inkscape:label="die bottom"
   style="display:inline"
   transform="translate(-174.46278,-86.268163)" /><g
   inkscape:groupmode="layer"
   id="layer2"
   inkscape:label="Logo"
   style="display:inline"
   transform="translate(-174.46278,-86.268163)" /><g
   id="g5287"
   transform="translate(-174.10923,-85.91461)"><g
     id="g7199-1-7-5"
     transform="matrix(3.2786885,0,0,3.2786885,-872.36296,-1417.5669)"
     style="overflow:visible;stroke:#1f271b;stroke-width:0.25;stroke-dasharray:none;stroke-opacity:1"><rect
       style="overflow:visible;fill:#1f271b;fill-opacity:1;stroke:#1f271b;stroke-width:0.25;stroke-dasharray:none;stroke-opacity:1"
       id="rect3527-4-7-6-5"
       width="12.84375"
       height="13.203125"
       x="320.43823"
       y="460.00052" /><path
       d="m 321.09302,458.97129 h 11.999 c 0.833,0 1.504,0.669 1.504,1.499 v 11.999 c 0,0.83 -0.671,1.502 -1.504,1.502 h -11.999 c -0.828,0 -1.497,-0.672 -1.497,-1.502 v -11.999 c 0,-0.83 0.66899,-1.499 1.497,-1.499 z m 10.41699,13.498 c 0.82,0 1.49401,-0.674 1.49401,-1.496 0,-0.835 -0.674,-1.504 -1.49401,-1.504 -0.83699,0 -1.507,0.669 -1.507,1.504 0,0.822 0.67001,1.496 1.507,1.496 z m 0,-8.996 c 0.82,0 1.49401,-0.672 1.49401,-1.504 0,-0.825 -0.674,-1.499 -1.49401,-1.499 -0.83699,0 -1.507,0.674 -1.507,1.499 0,0.832 0.67001,1.504 1.507,1.504 z m -4.41399,4.497 c 0.82299,0 1.497,-0.674 1.497,-1.499 0,-0.828 -0.674,-1.502 -1.497,-1.502 -0.83,0 -1.50401,0.674 -1.50401,1.502 0,0.825 0.674,1.499 1.50401,1.499 z m -4.409,4.499 c 0.825,0 1.499,-0.674 1.499,-1.496 0,-0.835 -0.674,-1.504 -1.499,-1.504 -0.832,0 -1.50401,0.669 -1.50401,1.504 0,0.822 0.67201,1.496 1.50401,1.496 z m 0,-8.996 c 0.825,0 1.499,-0.672 1.499,-1.504 0,-0.825 -0.674,-1.499 -1.499,-1.499 -0.832,0 -1.50401,0.674 -1.50401,1.499 0,0.832 0.67201,1.504 1.50401,1.504 z"
       id="path299-8-7-1"
       style="fill:#fcf7ff;fill-opacity:1;stroke:#1f271b;stroke-width:0.25;stroke-dasharray:none;stroke-opacity:1" /></g><text
     xml:space="preserve"
     style="font-weight:bold;font-size:73.6719px;font-family:'ITC Benguiat Std';-inkscape-font-specification:'ITC Benguiat Std Bold';letter-spacing:2.01px;overflow:visible;fill:#fcf7ff;fill-opacity:1;stroke:none;stroke-width:1.96747;stop-color:#000000"
     x="230.50323"
     y="136.15884"
     id="text1044-8-0-2-1"><tspan
       sodipodi:role="line"
       x="230.50323"
       y="136.15884"
       id="tspan1050-9-6-9-2"
       style="font-size:73.6719px;fill:#fcf7ff;fill-opacity:1;stroke:none;stroke-width:1.96747">DICE</tspan></text></g><g
   id="g5294"
   transform="translate(-176.04159,-89.09659)"><g
     id="g7199-1-7-5-8"
     transform="matrix(3.2578155,0,0,3.2786885,-667.1259,-1355.8011)"
     style="overflow:visible;stroke:#1f271b;stroke-width:0.25;stroke-dasharray:none;stroke-opacity:1"><rect
       style="overflow:visible;fill:#1f271b;fill-opacity:1;stroke:#1f271b;stroke-width:0.25;stroke-dasharray:none;stroke-opacity:1"
       id="rect3527-4-7-6-5-4"
       width="12.84375"
       height="13.203125"
       x="320.43823"
       y="460.00052" /><path
       d="m 321.09302,458.97129 h 11.999 c 0.833,0 1.504,0.669 1.504,1.499 v 11.999 c 0,0.83 -0.671,1.502 -1.504,1.502 h -11.999 c -0.828,0 -1.497,-0.672 -1.497,-1.502 v -11.999 c 0,-0.83 0.66899,-1.499 1.497,-1.499 z m 10.41699,13.498 c 0.82,0 1.49401,-0.674 1.49401,-1.496 0,-0.835 -0.674,-1.504 -1.49401,-1.504 -0.83699,0 -1.507,0.669 -1.507,1.504 0,0.822 0.67001,1.496 1.507,1.496 z m 0,-8.996 c 0.82,0 1.49401,-0.672 1.49401,-1.504 0,-0.825 -0.674,-1.499 -1.49401,-1.499 -0.83699,0 -1.507,0.674 -1.507,1.499 0,0.832 0.67001,1.504 1.507,1.504 z m -4.41399,4.497 c 0.82299,0 1.497,-0.674 1.497,-1.499 0,-0.828 -0.674,-1.502 -1.497,-1.502 -0.83,0 -1.50401,0.674 -1.50401,1.502 0,0.825 0.674,1.499 1.50401,1.499 z m -4.409,4.499 c 0.825,0 1.499,-0.674 1.499,-1.496 0,-0.835 -0.674,-1.504 -1.499,-1.504 -0.832,0 -1.50401,0.669 -1.50401,1.504 0,0.822 0.67201,1.496 1.50401,1.496 z m 0,-8.996 c 0.825,0 1.499,-0.672 1.499,-1.504 0,-0.825 -0.674,-1.499 -1.499,-1.499 -0.832,0 -1.50401,0.674 -1.50401,1.499 0,0.832 0.67201,1.504 1.50401,1.504 z"
       id="path299-8-7-1-4"
       style="fill:#fcf7ff;fill-opacity:1;stroke:#1f271b;stroke-width:0.25;stroke-dasharray:none;stroke-opacity:1" /></g><text
     xml:space="preserve"
     style="font-weight:bold;font-size:74.6667px;font-family:'ITC Benguiat Std';-inkscape-font-specification:'ITC Benguiat Std Bold';letter-spacing:-5.02px;overflow:visible;fill:#fcf7ff;fill-opacity:1;stroke:#fcf7ff;stroke-width:1.99401;stop-color:#000000"
     x="174.62292"
     y="198.77565"
     id="text1108-2-9-3-1"><tspan
       sodipodi:role="line"
       id="tspan1106-2-3-7-0"
       x="174.62292"
       y="198.77565"
       style="font-size:74.6667px;fill:#fcf7ff;fill-opacity:1;stroke:none"
       dx="0">DATA</tspan></text></g></svg>
