<?xml version="1.0" encoding="iso-8859-1"?>
<!-- Uploaded to: SVG Repo, www.svgrepo.com, Generator: SVG Repo Mixer Tools -->
<svg height="800px" width="800px" version="1.1" id="Layer_1" xmlns="http://www.w3.org/2000/svg" xmlns:xlink="http://www.w3.org/1999/xlink" 
	 viewBox="0 0 512 512" xml:space="preserve">
<path style="fill:#507D8C;" d="M189.817,215.994V433H322l0.195-216.961C308.249,166.43,274,99.205,274,48h-36
	C238,99.189,203.772,166.389,189.817,215.994"/>
<path style="fill:#4B6E7D;" d="M217,226c12.609-46.6,48.183-126.811,48.183-178H238c0,51.189-34.228,118.389-48.183,167.994V433H217
	V228V226z"/>
<path style="fill:#FFD782;" d="M256,168c10.435,0,19.224-6.699,22.53-16h21.339C286.756,116.463,274,79.25,274,48h-36
	c0,31.25-12.756,68.463-25.869,104h21.339C236.776,161.301,245.565,168,256,168z"/>
<path style="fill:#FFC36E;" d="M266.869,48H238c0,31.25-12.756,68.463-25.869,104L237,156C239.424,142.594,266.869,79.25,266.869,48
	z"/>
<path style="fill:#AFB9D2;" d="M295.999,480H152l-45.836-206.265c-1.11-4.996,2.691-9.735,7.809-9.735h284.055
	c5.118,0,8.919,4.739,7.809,9.735L360,480h-32.001H295.999z"/>
<g>
	<path style="fill:#A2AAC2;" d="M172.003,264h-58.031c-5.118,0-8.919,4.739-7.809,9.735L152,480h58.03l-45.836-206.265
		C163.083,268.739,166.885,264,172.003,264z"/>
	<path style="fill:#A2AAC2;" d="M347.75,480l-3.941,17.735c-0.813,3.66-4.06,6.265-7.81,6.265H176c-3.75,0-6.996-2.604-7.81-6.265
		l-3.928-17.677L347.75,480z"/>
</g>
<path style="fill:#959CB3;" d="M164.262,480.059l3.928,17.677c0.813,3.66,4.06,6.265,7.81,6.265h48.813l-2.778-23.959
	L164.262,480.059z"/>
<g>
	<path style="fill:#E4EAF6;" d="M280,48h-48V10c0-1.104,0.896-2,2-2h44c1.104,0,2,0.896,2,2V48z"/>
	<path style="fill:#E4EAF6;" d="M123.692,263.977l-6.319-6.319c-3.111-3.111-3.111-8.203,0-11.314l16.971-16.97
		c3.111-3.111,8.202-3.111,11.313,0l16.971,16.97c3.111,3.111,3.111,8.203,0,11.314L156.284,264"/>
	<path style="fill:#E4EAF6;" d="M193,264c-3.111-3.111-5.396-10.175-0.588-14.617l16.971-16.971c3.111-3.111,8.203-3.111,11.313,0
		l16.971,16.971c3.111,3.11,3.531,10.376-0.667,14.617"/>
	<path style="fill:#E4EAF6;" d="M156.839,240.06l-2.037-8.982c-0.973-4.291,1.742-8.599,6.033-9.571l23.405-5.309
		c4.291-0.973,8.598,1.742,9.571,6.033L199,244l-9,13l4,7h-40l9-7v-7L156.839,240.06z"/>
	<path style="fill:#E4EAF6;" d="M283.692,263.977l-6.319-6.319c-3.111-3.111-3.111-8.203,0-11.314l16.971-16.97
		c3.111-3.111,8.202-3.111,11.313,0l16.971,16.97c3.111,3.111,3.111,8.203,0,11.314L318,264"/>
	<path style="fill:#E4EAF6;" d="M353,264c-4.807-4.433-3.7-11.507-0.588-14.617l16.971-16.971c3.111-3.111,8.202-3.111,11.313,0
		l16.971,16.971c3.111,3.11,3.546,10.376-1.667,14.617"/>
	<path style="fill:#E4EAF6;" d="M359,243l-5.188-20.77c-0.973-4.291-5.28-7.006-9.571-6.033l-23.405,5.309
		c-4.291,0.973-7.006,5.28-6.033,9.571l2.037,8.982L324,251l-7,13h36l-2-11L359,243z"/>
</g>
<path style="fill:#FFD782;" d="M280,48h-48V10c0-1.104,0.896-2,2-2h44c1.104,0,2,0.896,2,2V48z"/>
<path style="fill:#FFC36E;" d="M252,8h-18c-1.104,0-2,0.896-2,2v38h18V10C250,8.896,250.896,8,252,8z"/>
<g>
	<path style="fill:#2D2B29;" d="M424,296h-14.916l4.562-20.529c1.059-4.763-0.085-9.677-3.138-13.482
		c-0.892-1.112-1.924-2.066-3.042-2.888c1.388-5.319,0.018-11.216-4.142-15.376l-16.971-16.97c-6.239-6.238-16.389-6.236-22.627,0
		l-0.558,0.559l-1.554-6.853c-1.951-8.604-10.539-14.018-19.143-12.065l-13.295,3.016c-4.612-15.874-11.003-33.106-17.774-51.316
		c-13.354-35.916-27.118-72.956-29.138-104.425C285.579,54.693,288,51.631,288,48V10c0-5.514-4.486-10-10-10h-44
		c-5.514,0-10,4.486-10,10v38c0,3.631,2.421,6.693,5.737,7.67c-2.021,31.469-15.785,68.509-29.138,104.425
		c-6.311,16.974-12.303,33.105-16.824,48.073c-0.434,0.063-0.869,0.129-1.304,0.228l-23.405,5.309
		c-4.16,0.942-7.708,3.456-9.99,7.078c-0.161,0.256-0.297,0.522-0.443,0.785c-6.191-3.971-14.538-3.26-19.947,2.148l-16.971,16.97
		c-4.461,4.462-5.714,10.92-3.795,16.521c-2.479,1.012-4.699,2.625-6.429,4.781c-3.053,3.806-4.197,8.72-3.138,13.482l4.563,20.53
		H88c-17.645,0-32,14.355-32,32c0,4.418,3.582,8,8,8s8-3.582,8-8c0-8.822,7.178-16,16-16h18.472l37.719,169.735
		c0.813,3.66,4.06,6.265,7.81,6.265h5.832l2.549,11.471C162.021,506.848,168.443,512,176,512h160
		c7.557,0,13.979-5.152,15.619-12.529L354.168,488H360c3.75,0,6.996-2.604,7.81-6.265L405.528,312H424c8.822,0,16,7.178,16,16
		c0,4.418,3.582,8,8,8s8-3.582,8-8C456,310.355,441.645,296,424,296z M375.039,238.069l16.971,16.97
		c-0.302,0.302-0.565,0.627-0.809,0.961h-32.323c-0.244-0.334-0.507-0.659-0.809-0.961L375.039,238.069z M346.01,224l3.784,16.686
		l-3.039,3.039c-3.363,3.363-4.896,7.863-4.633,12.275h-9.68c1.361-5.303-0.013-11.17-4.157-15.314l-4.009-4.009l-1.671-7.369
		L346.01,224z M287.029,256l-4-4L300,235.03L316.971,252l-4,4H287.029z M229.201,128H282.8c1.81,5.324,3.698,10.663,5.625,16h-9.895
		c-3.385,0-6.404,2.131-7.538,5.32C268.722,155.708,262.697,160,256,160s-12.722-4.292-14.992-10.68
		c-1.134-3.189-4.153-5.32-7.538-5.32h-9.895C225.503,138.663,227.391,133.324,229.201,128z M266.253,56
		c1.055,17.729,5.438,36.658,11.362,56h-43.23c5.923-19.342,10.307-38.271,11.362-56H266.253z M240,16h32v24h-32V16z
		 M215.596,165.671c0.702-1.888,1.404-3.778,2.106-5.671h10.688c5.644,9.758,16.129,16,27.61,16c11.481,0,21.966-6.242,27.61-16
		h10.688c0.702,1.893,1.405,3.783,2.106,5.67c6.675,17.955,12.976,34.939,17.427,50.273c-1.886,1.239-3.513,2.868-4.755,4.839
		c-0.161,0.256-0.297,0.522-0.443,0.785c-6.191-3.971-14.538-3.26-19.947,2.148l-16.971,16.97
		c-4.144,4.145-5.519,10.012-4.157,15.314h-19.602c0.263-4.412-1.27-8.912-4.633-12.275l-16.971-16.97
		c-6.239-6.238-16.389-6.236-22.627,0l-0.558,0.559l-1.554-6.853c-0.531-2.341-1.565-4.434-2.945-6.219
		C203.086,199.356,209.166,182.964,215.596,165.671z M198.877,256c-0.244-0.334-0.507-0.659-0.809-0.961l16.971-16.97l16.971,16.97
		c-0.302,0.302-0.565,0.627-0.809,0.961H198.877z M186.01,224l3.784,16.686l-3.039,3.039c-3.363,3.363-4.896,7.863-4.633,12.275
		h-9.68c1.361-5.303-0.013-11.17-4.157-15.314l-4.009-4.009l-1.671-7.369L186.01,224z M140,235.03L156.971,252l-4,4H127.03l-4-4
		L140,235.03z M353.583,472h-25.584c-4.418,0-8,3.582-8,8s3.582,8,8,8h9.779L336,496H176l-1.778-8h121.777c4.418,0,8-3.582,8-8
		s-3.582-8-8-8H158.417l-44.445-200h284.054L353.583,472z"/>
	<path style="fill:#2D2B29;" d="M359.178,336.188c-4.316-0.962-8.586,1.762-9.545,6.074l-23.112,104.003
		c-0.958,4.313,1.761,8.586,6.074,9.545c0.584,0.13,1.168,0.192,1.743,0.192c3.667,0,6.974-2.538,7.802-6.267l23.112-104.003
		C366.21,341.42,363.491,337.146,359.178,336.188z"/>
	<path style="fill:#2D2B29;" d="M369.844,288.19c-4.314-0.959-8.587,1.761-9.545,6.074l-3.555,15.997
		c-0.958,4.313,1.761,8.586,6.074,9.545c0.584,0.13,1.168,0.192,1.743,0.192c3.667,0,6.974-2.538,7.802-6.267l3.555-15.997
		C376.876,293.423,374.157,289.149,369.844,288.19z"/>
</g>
</svg>