<?xml version="1.0" encoding="iso-8859-1"?>
<!-- Uploaded to: SVG Repo, www.svgrepo.com, Generator: SVG Repo Mixer Tools -->
<svg height="800px" width="800px" version="1.1" id="Layer_1" xmlns="http://www.w3.org/2000/svg" xmlns:xlink="http://www.w3.org/1999/xlink" 
	 viewBox="0 0 512 512" xml:space="preserve">
<path style="fill:#9B9DA1;" d="M451.277,117.344l-12.483-12.483c-10.325-10.326-27.126-10.326-37.452,0l-24.968,24.968
	c-1.655,1.655-2.585,3.901-2.585,6.242s0.93,4.587,2.585,6.242l37.452,37.452c1.655,1.655,3.901,2.585,6.242,2.585
	s4.587-0.93,6.242-2.585l24.968-24.968C461.603,144.471,461.603,127.67,451.277,117.344z"/>
<path style="fill:#C3C4C6;" d="M273.655,26.483h-35.31c-4.875,0-8.828,3.953-8.828,8.828v44.138c0,4.875,3.953,8.828,8.828,8.828
	h35.31c4.875,0,8.828-3.953,8.828-8.828V35.31C282.483,30.435,278.53,26.483,273.655,26.483z"/>
<path style="fill:#AFB0B4;" d="M300.138,0h-88.276c-4.875,0-8.828,3.953-8.828,8.828v35.31c0,4.875,3.953,8.828,8.828,8.828h88.276
	c4.875,0,8.828-3.953,8.828-8.828V8.828C308.966,3.953,305.013,0,300.138,0z"/>
<g>
	<path style="fill:#9B9DA1;" d="M211.862,0c-4.875,0-8.828,3.953-8.828,8.828v35.31c0,4.875,3.953,8.828,8.828,8.828h52.874V0
		H211.862z"/>
	<path style="fill:#9B9DA1;" d="M300.138,0h-17.564v52.966h17.564c4.875,0,8.828-3.953,8.828-8.828V8.828
		C308.966,3.953,305.013,0,300.138,0z"/>
</g>
<path style="fill:#606268;" d="M220.69,44.138V8.828c0-4.875,3.953-8.828,8.828-8.828h-17.655c-4.875,0-8.828,3.953-8.828,8.828
	v35.31c0,4.875,3.953,8.828,8.828,8.828h17.655C224.642,52.966,220.69,49.013,220.69,44.138z"/>
<circle style="fill:#E5563C;" cx="256" cy="291.31" r="220.69"/>
<circle style="fill:#CF442B;" cx="256" cy="291.31" r="185.379"/>
<circle style="fill:#FFFFFF;" cx="256" cy="291.31" r="167.724"/>
<path style="fill:#EBEBEC;" d="M273.655,432.552c-92.631,0-167.724-75.093-167.724-167.724c0-28.666,7.198-55.649,19.875-79.251
	c-23.46,28.853-37.53,65.647-37.53,105.734c0,92.631,75.093,167.724,167.724,167.724c63.965,0,119.561-35.811,147.849-88.474
	C373.096,408.382,326.201,432.552,273.655,432.552z"/>
<g>
	<path style="fill:#606268;" d="M256,158.897c4.875,0,8.828-3.953,8.828-8.828v-26.252c-2.923-0.151-5.866-0.231-8.828-0.231
		s-5.905,0.079-8.828,0.231v26.252C247.172,154.944,251.125,158.897,256,158.897z"/>
	<path style="fill:#606268;" d="M423.493,282.483h-26.252c-4.875,0-8.828,3.953-8.828,8.828s3.953,8.828,8.828,8.828h26.252
		c0.151-2.923,0.231-5.866,0.231-8.828C423.724,288.349,423.645,285.406,423.493,282.483z"/>
	<path style="fill:#606268;" d="M256,423.724c-4.875,0-8.828,3.953-8.828,8.828v26.252c2.923,0.151,5.866,0.231,8.828,0.231
		s5.905-0.079,8.828-0.231v-26.252C264.828,427.677,260.875,423.724,256,423.724z"/>
	<path style="fill:#606268;" d="M123.586,291.31c0-4.875-3.953-8.828-8.828-8.828H88.506c-0.151,2.923-0.231,5.866-0.231,8.828
		c0,2.962,0.079,5.905,0.231,8.828h26.252C119.634,300.138,123.586,296.185,123.586,291.31z"/>
</g>
<path style="fill:#FDD042;" d="M273.655,274.759h-35.31c-0.608,0-1.103-0.495-1.103-1.103v-26.483c0-0.608,0.495-1.103,1.103-1.103
	h52.965c9.141,0,16.552-7.411,16.552-16.552s-7.411-16.552-16.552-16.552h-18.759v-9.931c0-9.141-7.411-16.552-16.552-16.552
	s-16.552,7.411-16.552,16.552v9.931h-1.103c-18.861,0-34.207,15.346-34.207,34.207v26.483c0,18.861,15.346,34.207,34.207,34.207
	h35.31c0.608,0,1.103,0.495,1.103,1.103v26.483c0,0.608-0.495,1.103-1.103,1.103H220.69c-9.141,0-16.552,7.411-16.552,16.552
	s7.411,16.552,16.552,16.552h18.759v9.931c0,9.141,7.411,16.552,16.552,16.552s16.552-7.411,16.552-16.552v-9.931h1.103
	c18.861,0,34.207-15.346,34.207-34.207v-26.483C307.862,290.104,292.516,274.759,273.655,274.759z"/>
</svg>